<mxfile host="app.diagrams.net" modified="2020-08-08T13:18:58.936Z" agent="5.0 (Macintosh; Intel Mac OS X 10_15_5) AppleWebKit/537.36 (KHTML, like Gecko) Chrome/84.0.4147.89 Safari/537.36" etag="ru6d7hd-89kL0Wjxtx6j" version="13.6.0" type="github">
  <diagram id="6a731a19-8d31-9384-78a2-239565b7b9f0" name="Page-1">
    <mxGraphModel dx="2754" dy="2020" grid="1" gridSize="10" guides="1" tooltips="1" connect="1" arrows="1" fold="1" page="1" pageScale="1" pageWidth="1169" pageHeight="827" background="#ffffff" math="0" shadow="0">
      <root>
        <mxCell id="0" />
        <mxCell id="1" parent="0" />
        <mxCell id="qgP3G6Yp0AdrARfNXi05-150" style="edgeStyle=orthogonalEdgeStyle;rounded=0;orthogonalLoop=1;jettySize=auto;html=1;exitX=1;exitY=0.5;exitDx=0;exitDy=0;fontFamily=Verdana;fontSize=22;" edge="1" parent="1" source="qgP3G6Yp0AdrARfNXi05-143" target="qgP3G6Yp0AdrARfNXi05-146">
          <mxGeometry relative="1" as="geometry" />
        </mxCell>
        <mxCell id="qgP3G6Yp0AdrARfNXi05-151" style="edgeStyle=orthogonalEdgeStyle;rounded=0;orthogonalLoop=1;jettySize=auto;html=1;entryX=0;entryY=0.5;entryDx=0;entryDy=0;fontFamily=Verdana;fontSize=22;" edge="1" parent="1" source="qgP3G6Yp0AdrARfNXi05-143" target="qgP3G6Yp0AdrARfNXi05-147">
          <mxGeometry relative="1" as="geometry" />
        </mxCell>
        <mxCell id="qgP3G6Yp0AdrARfNXi05-156" style="edgeStyle=orthogonalEdgeStyle;rounded=0;orthogonalLoop=1;jettySize=auto;html=1;entryX=0.5;entryY=0;entryDx=0;entryDy=0;fontFamily=Verdana;fontSize=22;" edge="1" parent="1" source="qgP3G6Yp0AdrARfNXi05-143" target="qgP3G6Yp0AdrARfNXi05-155">
          <mxGeometry relative="1" as="geometry" />
        </mxCell>
        <mxCell id="qgP3G6Yp0AdrARfNXi05-143" value="Intro" style="rounded=1;whiteSpace=wrap;html=1;fontFamily=Verdana;fontSize=22;" vertex="1" parent="1">
          <mxGeometry x="70" y="40" width="130" height="80" as="geometry" />
        </mxCell>
        <mxCell id="qgP3G6Yp0AdrARfNXi05-146" value="카카오로 시작하기" style="rounded=1;whiteSpace=wrap;html=1;fontFamily=Verdana;fontSize=22;" vertex="1" parent="1">
          <mxGeometry x="300" y="40" width="200" height="30" as="geometry" />
        </mxCell>
        <mxCell id="qgP3G6Yp0AdrARfNXi05-152" style="edgeStyle=orthogonalEdgeStyle;rounded=0;orthogonalLoop=1;jettySize=auto;html=1;fontFamily=Verdana;fontSize=22;" edge="1" parent="1" source="qgP3G6Yp0AdrARfNXi05-147" target="qgP3G6Yp0AdrARfNXi05-148">
          <mxGeometry relative="1" as="geometry" />
        </mxCell>
        <mxCell id="qgP3G6Yp0AdrARfNXi05-153" style="edgeStyle=orthogonalEdgeStyle;rounded=0;orthogonalLoop=1;jettySize=auto;html=1;entryX=0;entryY=0.5;entryDx=0;entryDy=0;fontFamily=Verdana;fontSize=22;" edge="1" parent="1" source="qgP3G6Yp0AdrARfNXi05-147" target="qgP3G6Yp0AdrARfNXi05-149">
          <mxGeometry relative="1" as="geometry" />
        </mxCell>
        <mxCell id="qgP3G6Yp0AdrARfNXi05-147" value="메일로 시작하기" style="rounded=1;whiteSpace=wrap;html=1;fontFamily=Verdana;fontSize=22;" vertex="1" parent="1">
          <mxGeometry x="300" y="90" width="200" height="30" as="geometry" />
        </mxCell>
        <mxCell id="qgP3G6Yp0AdrARfNXi05-148" value="로그인" style="rounded=1;whiteSpace=wrap;html=1;fontFamily=Verdana;fontSize=22;" vertex="1" parent="1">
          <mxGeometry x="630" y="70" width="100" height="30" as="geometry" />
        </mxCell>
        <mxCell id="qgP3G6Yp0AdrARfNXi05-149" value="회원가입" style="rounded=1;whiteSpace=wrap;html=1;fontFamily=Verdana;fontSize=22;" vertex="1" parent="1">
          <mxGeometry x="630" y="110" width="100" height="30" as="geometry" />
        </mxCell>
        <mxCell id="qgP3G6Yp0AdrARfNXi05-161" style="edgeStyle=orthogonalEdgeStyle;rounded=0;orthogonalLoop=1;jettySize=auto;html=1;entryX=0;entryY=0.5;entryDx=0;entryDy=0;fontFamily=Verdana;fontSize=22;" edge="1" parent="1" source="qgP3G6Yp0AdrARfNXi05-155" target="qgP3G6Yp0AdrARfNXi05-157">
          <mxGeometry relative="1" as="geometry" />
        </mxCell>
        <mxCell id="qgP3G6Yp0AdrARfNXi05-162" style="edgeStyle=orthogonalEdgeStyle;rounded=0;orthogonalLoop=1;jettySize=auto;html=1;fontFamily=Verdana;fontSize=22;" edge="1" parent="1" source="qgP3G6Yp0AdrARfNXi05-155" target="qgP3G6Yp0AdrARfNXi05-158">
          <mxGeometry relative="1" as="geometry" />
        </mxCell>
        <mxCell id="qgP3G6Yp0AdrARfNXi05-166" style="edgeStyle=orthogonalEdgeStyle;rounded=0;orthogonalLoop=1;jettySize=auto;html=1;entryX=0;entryY=0.5;entryDx=0;entryDy=0;fontFamily=Verdana;fontSize=22;" edge="1" parent="1" source="qgP3G6Yp0AdrARfNXi05-155" target="qgP3G6Yp0AdrARfNXi05-165">
          <mxGeometry relative="1" as="geometry">
            <Array as="points">
              <mxPoint x="220" y="350" />
              <mxPoint x="220" y="710" />
            </Array>
          </mxGeometry>
        </mxCell>
        <mxCell id="qgP3G6Yp0AdrARfNXi05-186" style="edgeStyle=orthogonalEdgeStyle;rounded=0;orthogonalLoop=1;jettySize=auto;html=1;entryX=0;entryY=0.5;entryDx=0;entryDy=0;fontFamily=Verdana;fontSize=22;" edge="1" parent="1" source="qgP3G6Yp0AdrARfNXi05-155" target="qgP3G6Yp0AdrARfNXi05-159">
          <mxGeometry relative="1" as="geometry" />
        </mxCell>
        <mxCell id="qgP3G6Yp0AdrARfNXi05-187" style="edgeStyle=orthogonalEdgeStyle;rounded=0;orthogonalLoop=1;jettySize=auto;html=1;entryX=0;entryY=0.5;entryDx=0;entryDy=0;fontFamily=Verdana;fontSize=22;" edge="1" parent="1" source="qgP3G6Yp0AdrARfNXi05-155" target="qgP3G6Yp0AdrARfNXi05-160">
          <mxGeometry relative="1" as="geometry" />
        </mxCell>
        <mxCell id="qgP3G6Yp0AdrARfNXi05-155" value="Main" style="rounded=1;whiteSpace=wrap;html=1;fontFamily=Verdana;fontSize=22;" vertex="1" parent="1">
          <mxGeometry x="70" y="310" width="130" height="80" as="geometry" />
        </mxCell>
        <mxCell id="qgP3G6Yp0AdrARfNXi05-171" style="edgeStyle=orthogonalEdgeStyle;rounded=0;orthogonalLoop=1;jettySize=auto;html=1;entryX=0;entryY=0.25;entryDx=0;entryDy=0;fontFamily=Verdana;fontSize=22;" edge="1" parent="1" source="qgP3G6Yp0AdrARfNXi05-157" target="qgP3G6Yp0AdrARfNXi05-167">
          <mxGeometry relative="1" as="geometry" />
        </mxCell>
        <mxCell id="qgP3G6Yp0AdrARfNXi05-172" style="edgeStyle=orthogonalEdgeStyle;rounded=0;orthogonalLoop=1;jettySize=auto;html=1;fontFamily=Verdana;fontSize=22;" edge="1" parent="1" source="qgP3G6Yp0AdrARfNXi05-157" target="qgP3G6Yp0AdrARfNXi05-169">
          <mxGeometry relative="1" as="geometry" />
        </mxCell>
        <mxCell id="qgP3G6Yp0AdrARfNXi05-173" style="edgeStyle=orthogonalEdgeStyle;rounded=0;orthogonalLoop=1;jettySize=auto;html=1;entryX=0;entryY=0.5;entryDx=0;entryDy=0;fontFamily=Verdana;fontSize=22;" edge="1" parent="1" source="qgP3G6Yp0AdrARfNXi05-157" target="qgP3G6Yp0AdrARfNXi05-170">
          <mxGeometry relative="1" as="geometry" />
        </mxCell>
        <mxCell id="qgP3G6Yp0AdrARfNXi05-157" value="미세 갤러리" style="rounded=1;whiteSpace=wrap;html=1;fontFamily=Verdana;fontSize=22;" vertex="1" parent="1">
          <mxGeometry x="300" y="270" width="200" height="30" as="geometry" />
        </mxCell>
        <mxCell id="qgP3G6Yp0AdrARfNXi05-176" style="edgeStyle=orthogonalEdgeStyle;rounded=0;orthogonalLoop=1;jettySize=auto;html=1;fontFamily=Verdana;fontSize=22;" edge="1" parent="1" source="qgP3G6Yp0AdrARfNXi05-158" target="qgP3G6Yp0AdrARfNXi05-174">
          <mxGeometry relative="1" as="geometry" />
        </mxCell>
        <mxCell id="qgP3G6Yp0AdrARfNXi05-158" value="미세 뉴스" style="rounded=1;whiteSpace=wrap;html=1;fontFamily=Verdana;fontSize=22;" vertex="1" parent="1">
          <mxGeometry x="300" y="360" width="200" height="30" as="geometry" />
        </mxCell>
        <mxCell id="qgP3G6Yp0AdrARfNXi05-180" style="edgeStyle=orthogonalEdgeStyle;rounded=0;orthogonalLoop=1;jettySize=auto;html=1;fontFamily=Verdana;fontSize=22;" edge="1" parent="1" source="qgP3G6Yp0AdrARfNXi05-159" target="qgP3G6Yp0AdrARfNXi05-178">
          <mxGeometry relative="1" as="geometry" />
        </mxCell>
        <mxCell id="qgP3G6Yp0AdrARfNXi05-181" style="edgeStyle=orthogonalEdgeStyle;rounded=0;orthogonalLoop=1;jettySize=auto;html=1;entryX=0;entryY=0.5;entryDx=0;entryDy=0;fontFamily=Verdana;fontSize=22;" edge="1" parent="1" source="qgP3G6Yp0AdrARfNXi05-159" target="qgP3G6Yp0AdrARfNXi05-179">
          <mxGeometry relative="1" as="geometry" />
        </mxCell>
        <mxCell id="qgP3G6Yp0AdrARfNXi05-159" value="미세 지도" style="rounded=1;whiteSpace=wrap;html=1;fontFamily=Verdana;fontSize=22;" vertex="1" parent="1">
          <mxGeometry x="300" y="449" width="200" height="30" as="geometry" />
        </mxCell>
        <mxCell id="qgP3G6Yp0AdrARfNXi05-184" style="edgeStyle=orthogonalEdgeStyle;rounded=0;orthogonalLoop=1;jettySize=auto;html=1;fontFamily=Verdana;fontSize=22;" edge="1" parent="1" source="qgP3G6Yp0AdrARfNXi05-160" target="qgP3G6Yp0AdrARfNXi05-182">
          <mxGeometry relative="1" as="geometry" />
        </mxCell>
        <mxCell id="qgP3G6Yp0AdrARfNXi05-160" value="통계" style="rounded=1;whiteSpace=wrap;html=1;fontFamily=Verdana;fontSize=22;" vertex="1" parent="1">
          <mxGeometry x="300" y="530" width="200" height="30" as="geometry" />
        </mxCell>
        <mxCell id="qgP3G6Yp0AdrARfNXi05-204" style="edgeStyle=orthogonalEdgeStyle;rounded=0;orthogonalLoop=1;jettySize=auto;html=1;entryX=0;entryY=0.5;entryDx=0;entryDy=0;fontFamily=Verdana;fontSize=19;" edge="1" parent="1" source="qgP3G6Yp0AdrARfNXi05-165" target="qgP3G6Yp0AdrARfNXi05-188">
          <mxGeometry relative="1" as="geometry" />
        </mxCell>
        <mxCell id="qgP3G6Yp0AdrARfNXi05-205" style="edgeStyle=orthogonalEdgeStyle;rounded=0;orthogonalLoop=1;jettySize=auto;html=1;entryX=0;entryY=0.5;entryDx=0;entryDy=0;fontFamily=Verdana;fontSize=19;" edge="1" parent="1" source="qgP3G6Yp0AdrARfNXi05-165" target="qgP3G6Yp0AdrARfNXi05-189">
          <mxGeometry relative="1" as="geometry" />
        </mxCell>
        <mxCell id="qgP3G6Yp0AdrARfNXi05-206" style="edgeStyle=orthogonalEdgeStyle;rounded=0;orthogonalLoop=1;jettySize=auto;html=1;entryX=0;entryY=0.5;entryDx=0;entryDy=0;fontFamily=Verdana;fontSize=19;" edge="1" parent="1" source="qgP3G6Yp0AdrARfNXi05-165" target="qgP3G6Yp0AdrARfNXi05-190">
          <mxGeometry relative="1" as="geometry" />
        </mxCell>
        <mxCell id="qgP3G6Yp0AdrARfNXi05-207" style="edgeStyle=orthogonalEdgeStyle;rounded=0;orthogonalLoop=1;jettySize=auto;html=1;entryX=0;entryY=0.5;entryDx=0;entryDy=0;fontFamily=Verdana;fontSize=19;" edge="1" parent="1" source="qgP3G6Yp0AdrARfNXi05-165" target="qgP3G6Yp0AdrARfNXi05-191">
          <mxGeometry relative="1" as="geometry" />
        </mxCell>
        <mxCell id="qgP3G6Yp0AdrARfNXi05-208" style="edgeStyle=orthogonalEdgeStyle;rounded=0;orthogonalLoop=1;jettySize=auto;html=1;entryX=0;entryY=0.5;entryDx=0;entryDy=0;fontFamily=Verdana;fontSize=19;" edge="1" parent="1" source="qgP3G6Yp0AdrARfNXi05-165" target="qgP3G6Yp0AdrARfNXi05-192">
          <mxGeometry relative="1" as="geometry" />
        </mxCell>
        <mxCell id="qgP3G6Yp0AdrARfNXi05-209" style="edgeStyle=orthogonalEdgeStyle;rounded=0;orthogonalLoop=1;jettySize=auto;html=1;entryX=0;entryY=0.5;entryDx=0;entryDy=0;fontFamily=Verdana;fontSize=19;" edge="1" parent="1" source="qgP3G6Yp0AdrARfNXi05-165" target="qgP3G6Yp0AdrARfNXi05-193">
          <mxGeometry relative="1" as="geometry" />
        </mxCell>
        <mxCell id="qgP3G6Yp0AdrARfNXi05-210" style="edgeStyle=orthogonalEdgeStyle;rounded=0;orthogonalLoop=1;jettySize=auto;html=1;entryX=0;entryY=0.5;entryDx=0;entryDy=0;fontFamily=Verdana;fontSize=19;" edge="1" parent="1" source="qgP3G6Yp0AdrARfNXi05-165" target="qgP3G6Yp0AdrARfNXi05-194">
          <mxGeometry relative="1" as="geometry" />
        </mxCell>
        <mxCell id="qgP3G6Yp0AdrARfNXi05-211" style="edgeStyle=orthogonalEdgeStyle;rounded=0;orthogonalLoop=1;jettySize=auto;html=1;entryX=0;entryY=0.5;entryDx=0;entryDy=0;fontFamily=Verdana;fontSize=19;" edge="1" parent="1" source="qgP3G6Yp0AdrARfNXi05-165" target="qgP3G6Yp0AdrARfNXi05-195">
          <mxGeometry relative="1" as="geometry" />
        </mxCell>
        <mxCell id="qgP3G6Yp0AdrARfNXi05-223" style="edgeStyle=orthogonalEdgeStyle;rounded=0;orthogonalLoop=1;jettySize=auto;html=1;entryX=0;entryY=0.5;entryDx=0;entryDy=0;fontFamily=Verdana;fontSize=19;" edge="1" parent="1" source="qgP3G6Yp0AdrARfNXi05-165" target="qgP3G6Yp0AdrARfNXi05-220">
          <mxGeometry relative="1" as="geometry" />
        </mxCell>
        <mxCell id="qgP3G6Yp0AdrARfNXi05-165" value="Side menu" style="rounded=1;whiteSpace=wrap;html=1;fontFamily=Verdana;fontSize=22;" vertex="1" parent="1">
          <mxGeometry x="300" y="680" width="200" height="60" as="geometry" />
        </mxCell>
        <mxCell id="qgP3G6Yp0AdrARfNXi05-167" value="갤러리" style="rounded=1;whiteSpace=wrap;html=1;fontFamily=Verdana;fontSize=22;" vertex="1" parent="1">
          <mxGeometry x="630" y="230" width="100" height="30" as="geometry" />
        </mxCell>
        <mxCell id="qgP3G6Yp0AdrARfNXi05-169" value="내 이미지" style="rounded=1;whiteSpace=wrap;html=1;fontFamily=Verdana;fontSize=22;" vertex="1" parent="1">
          <mxGeometry x="630" y="270" width="100" height="30" as="geometry" />
        </mxCell>
        <mxCell id="qgP3G6Yp0AdrARfNXi05-170" value="사진 공유" style="rounded=1;whiteSpace=wrap;html=1;fontFamily=Verdana;fontSize=22;" vertex="1" parent="1">
          <mxGeometry x="630" y="310" width="100" height="30" as="geometry" />
        </mxCell>
        <mxCell id="qgP3G6Yp0AdrARfNXi05-177" style="edgeStyle=orthogonalEdgeStyle;rounded=0;orthogonalLoop=1;jettySize=auto;html=1;entryX=0;entryY=0.5;entryDx=0;entryDy=0;fontFamily=Verdana;fontSize=22;" edge="1" parent="1" source="qgP3G6Yp0AdrARfNXi05-174" target="qgP3G6Yp0AdrARfNXi05-175">
          <mxGeometry relative="1" as="geometry" />
        </mxCell>
        <mxCell id="qgP3G6Yp0AdrARfNXi05-174" value="뉴스" style="rounded=1;whiteSpace=wrap;html=1;fontFamily=Verdana;fontSize=22;" vertex="1" parent="1">
          <mxGeometry x="630" y="360" width="100" height="30" as="geometry" />
        </mxCell>
        <mxCell id="qgP3G6Yp0AdrARfNXi05-175" value="뉴스 웹뷰" style="rounded=1;whiteSpace=wrap;html=1;fontFamily=Verdana;fontSize=22;" vertex="1" parent="1">
          <mxGeometry x="880" y="360" width="100" height="30" as="geometry" />
        </mxCell>
        <mxCell id="qgP3G6Yp0AdrARfNXi05-178" value="예보" style="rounded=1;whiteSpace=wrap;html=1;fontFamily=Verdana;fontSize=22;" vertex="1" parent="1">
          <mxGeometry x="630" y="429" width="100" height="30" as="geometry" />
        </mxCell>
        <mxCell id="qgP3G6Yp0AdrARfNXi05-179" value="실시간" style="rounded=1;whiteSpace=wrap;html=1;fontFamily=Verdana;fontSize=22;" vertex="1" parent="1">
          <mxGeometry x="630" y="469" width="100" height="30" as="geometry" />
        </mxCell>
        <mxCell id="qgP3G6Yp0AdrARfNXi05-185" style="edgeStyle=orthogonalEdgeStyle;rounded=0;orthogonalLoop=1;jettySize=auto;html=1;fontFamily=Verdana;fontSize=22;" edge="1" parent="1" source="qgP3G6Yp0AdrARfNXi05-182" target="qgP3G6Yp0AdrARfNXi05-183">
          <mxGeometry relative="1" as="geometry" />
        </mxCell>
        <mxCell id="qgP3G6Yp0AdrARfNXi05-182" value="마스크 착용 설문" style="rounded=1;whiteSpace=wrap;html=1;fontFamily=Verdana;fontSize=22;" vertex="1" parent="1">
          <mxGeometry x="630" y="530" width="180" height="30" as="geometry" />
        </mxCell>
        <mxCell id="qgP3G6Yp0AdrARfNXi05-183" value="그래프" style="rounded=1;whiteSpace=wrap;html=1;fontFamily=Verdana;fontSize=22;" vertex="1" parent="1">
          <mxGeometry x="880" y="530" width="180" height="30" as="geometry" />
        </mxCell>
        <mxCell id="qgP3G6Yp0AdrARfNXi05-212" style="edgeStyle=orthogonalEdgeStyle;rounded=0;orthogonalLoop=1;jettySize=auto;html=1;entryX=0;entryY=0.5;entryDx=0;entryDy=0;fontFamily=Verdana;fontSize=19;" edge="1" parent="1" source="qgP3G6Yp0AdrARfNXi05-188" target="qgP3G6Yp0AdrARfNXi05-196">
          <mxGeometry relative="1" as="geometry" />
        </mxCell>
        <mxCell id="qgP3G6Yp0AdrARfNXi05-188" value="프로필" style="rounded=1;whiteSpace=wrap;html=1;fontFamily=Verdana;fontSize=22;" vertex="1" parent="1">
          <mxGeometry x="630" y="645" width="140" height="30" as="geometry" />
        </mxCell>
        <mxCell id="qgP3G6Yp0AdrARfNXi05-213" style="edgeStyle=orthogonalEdgeStyle;rounded=0;orthogonalLoop=1;jettySize=auto;html=1;entryX=0;entryY=0.5;entryDx=0;entryDy=0;fontFamily=Verdana;fontSize=19;" edge="1" parent="1" source="qgP3G6Yp0AdrARfNXi05-189" target="qgP3G6Yp0AdrARfNXi05-197">
          <mxGeometry relative="1" as="geometry" />
        </mxCell>
        <mxCell id="qgP3G6Yp0AdrARfNXi05-214" style="edgeStyle=orthogonalEdgeStyle;rounded=0;orthogonalLoop=1;jettySize=auto;html=1;entryX=0;entryY=0.5;entryDx=0;entryDy=0;fontFamily=Verdana;fontSize=19;" edge="1" parent="1" source="qgP3G6Yp0AdrARfNXi05-189" target="qgP3G6Yp0AdrARfNXi05-198">
          <mxGeometry relative="1" as="geometry" />
        </mxCell>
        <mxCell id="qgP3G6Yp0AdrARfNXi05-215" style="edgeStyle=orthogonalEdgeStyle;rounded=0;orthogonalLoop=1;jettySize=auto;html=1;fontFamily=Verdana;fontSize=19;" edge="1" parent="1" source="qgP3G6Yp0AdrARfNXi05-189" target="qgP3G6Yp0AdrARfNXi05-199">
          <mxGeometry relative="1" as="geometry" />
        </mxCell>
        <mxCell id="qgP3G6Yp0AdrARfNXi05-189" value="데일리 톡톡" style="rounded=1;whiteSpace=wrap;html=1;fontFamily=Verdana;fontSize=22;" vertex="1" parent="1">
          <mxGeometry x="630" y="750" width="140" height="30" as="geometry" />
        </mxCell>
        <mxCell id="qgP3G6Yp0AdrARfNXi05-216" style="edgeStyle=orthogonalEdgeStyle;rounded=0;orthogonalLoop=1;jettySize=auto;html=1;fontFamily=Verdana;fontSize=19;" edge="1" parent="1" source="qgP3G6Yp0AdrARfNXi05-190" target="qgP3G6Yp0AdrARfNXi05-200">
          <mxGeometry relative="1" as="geometry" />
        </mxCell>
        <mxCell id="qgP3G6Yp0AdrARfNXi05-190" value="출석 체크" style="rounded=1;whiteSpace=wrap;html=1;fontFamily=Verdana;fontSize=22;" vertex="1" parent="1">
          <mxGeometry x="630" y="830" width="140" height="30" as="geometry" />
        </mxCell>
        <mxCell id="qgP3G6Yp0AdrARfNXi05-217" style="edgeStyle=orthogonalEdgeStyle;rounded=0;orthogonalLoop=1;jettySize=auto;html=1;entryX=0;entryY=0.5;entryDx=0;entryDy=0;fontFamily=Verdana;fontSize=19;" edge="1" parent="1" source="qgP3G6Yp0AdrARfNXi05-191" target="qgP3G6Yp0AdrARfNXi05-201">
          <mxGeometry relative="1" as="geometry" />
        </mxCell>
        <mxCell id="qgP3G6Yp0AdrARfNXi05-218" style="edgeStyle=orthogonalEdgeStyle;rounded=0;orthogonalLoop=1;jettySize=auto;html=1;entryX=0;entryY=0.5;entryDx=0;entryDy=0;fontFamily=Verdana;fontSize=19;" edge="1" parent="1" source="qgP3G6Yp0AdrARfNXi05-191" target="qgP3G6Yp0AdrARfNXi05-202">
          <mxGeometry relative="1" as="geometry" />
        </mxCell>
        <mxCell id="qgP3G6Yp0AdrARfNXi05-191" value="쇼핑" style="rounded=1;whiteSpace=wrap;html=1;fontFamily=Verdana;fontSize=22;" vertex="1" parent="1">
          <mxGeometry x="630" y="900" width="140" height="30" as="geometry" />
        </mxCell>
        <mxCell id="qgP3G6Yp0AdrARfNXi05-192" value="미세먼지 단계" style="rounded=1;whiteSpace=wrap;html=1;fontFamily=Verdana;fontSize=22;" vertex="1" parent="1">
          <mxGeometry x="630" y="1020" width="140" height="30" as="geometry" />
        </mxCell>
        <mxCell id="qgP3G6Yp0AdrARfNXi05-193" value="위젯 설정" style="rounded=1;whiteSpace=wrap;html=1;fontFamily=Verdana;fontSize=22;" vertex="1" parent="1">
          <mxGeometry x="630" y="1070" width="140" height="30" as="geometry" />
        </mxCell>
        <mxCell id="qgP3G6Yp0AdrARfNXi05-194" value="알림 설정" style="rounded=1;whiteSpace=wrap;html=1;fontFamily=Verdana;fontSize=22;" vertex="1" parent="1">
          <mxGeometry x="630" y="1120" width="140" height="30" as="geometry" />
        </mxCell>
        <mxCell id="qgP3G6Yp0AdrARfNXi05-219" style="edgeStyle=orthogonalEdgeStyle;rounded=0;orthogonalLoop=1;jettySize=auto;html=1;entryX=0;entryY=0.5;entryDx=0;entryDy=0;fontFamily=Verdana;fontSize=19;" edge="1" parent="1" source="qgP3G6Yp0AdrARfNXi05-195" target="qgP3G6Yp0AdrARfNXi05-203">
          <mxGeometry relative="1" as="geometry" />
        </mxCell>
        <mxCell id="qgP3G6Yp0AdrARfNXi05-195" value="앱 정보" style="rounded=1;whiteSpace=wrap;html=1;fontFamily=Verdana;fontSize=22;" vertex="1" parent="1">
          <mxGeometry x="630" y="1170" width="140" height="30" as="geometry" />
        </mxCell>
        <mxCell id="qgP3G6Yp0AdrARfNXi05-196" value="톡내역 / HUM 전환 내역 / 내 미세 갤러리 / 보관함 / 로그아웃" style="rounded=1;whiteSpace=wrap;html=1;fontFamily=Verdana;fontSize=19;" vertex="1" parent="1">
          <mxGeometry x="880" y="630" width="250" height="60" as="geometry" />
        </mxCell>
        <mxCell id="qgP3G6Yp0AdrARfNXi05-197" value="미세 갤러리" style="rounded=1;whiteSpace=wrap;html=1;fontFamily=Verdana;fontSize=19;" vertex="1" parent="1">
          <mxGeometry x="880" y="710" width="100" height="30" as="geometry" />
        </mxCell>
        <mxCell id="qgP3G6Yp0AdrARfNXi05-198" value="미세 뉴스" style="rounded=1;whiteSpace=wrap;html=1;fontFamily=Verdana;fontSize=19;" vertex="1" parent="1">
          <mxGeometry x="880" y="745" width="100" height="30" as="geometry" />
        </mxCell>
        <mxCell id="qgP3G6Yp0AdrARfNXi05-199" value="미세 지도" style="rounded=1;whiteSpace=wrap;html=1;fontFamily=Verdana;fontSize=19;" vertex="1" parent="1">
          <mxGeometry x="880" y="780" width="100" height="30" as="geometry" />
        </mxCell>
        <mxCell id="qgP3G6Yp0AdrARfNXi05-200" value="출석 체크, 출석 횟수 확인" style="rounded=1;whiteSpace=wrap;html=1;fontFamily=Verdana;fontSize=19;" vertex="1" parent="1">
          <mxGeometry x="880" y="830" width="250" height="30" as="geometry" />
        </mxCell>
        <mxCell id="qgP3G6Yp0AdrARfNXi05-201" value="톡으로 구매하기" style="rounded=1;whiteSpace=wrap;html=1;fontFamily=Verdana;fontSize=19;" vertex="1" parent="1">
          <mxGeometry x="880" y="880" width="250" height="30" as="geometry" />
        </mxCell>
        <mxCell id="qgP3G6Yp0AdrARfNXi05-202" value="보관함" style="rounded=1;whiteSpace=wrap;html=1;fontFamily=Verdana;fontSize=19;" vertex="1" parent="1">
          <mxGeometry x="880" y="920" width="90" height="30" as="geometry" />
        </mxCell>
        <mxCell id="qgP3G6Yp0AdrARfNXi05-203" value="버전 / 약관 / 의견 보내기 / 라이센스" style="rounded=1;whiteSpace=wrap;html=1;fontFamily=Verdana;fontSize=19;" vertex="1" parent="1">
          <mxGeometry x="880" y="1160" width="230" height="50" as="geometry" />
        </mxCell>
        <mxCell id="qgP3G6Yp0AdrARfNXi05-222" style="edgeStyle=orthogonalEdgeStyle;rounded=0;orthogonalLoop=1;jettySize=auto;html=1;entryX=0;entryY=0.5;entryDx=0;entryDy=0;fontFamily=Verdana;fontSize=19;" edge="1" parent="1" source="qgP3G6Yp0AdrARfNXi05-220">
          <mxGeometry relative="1" as="geometry">
            <mxPoint x="880" y="985" as="targetPoint" />
          </mxGeometry>
        </mxCell>
        <mxCell id="qgP3G6Yp0AdrARfNXi05-220" value="지갑" style="rounded=1;whiteSpace=wrap;html=1;fontFamily=Verdana;fontSize=22;" vertex="1" parent="1">
          <mxGeometry x="630" y="970" width="140" height="30" as="geometry" />
        </mxCell>
        <mxCell id="qgP3G6Yp0AdrARfNXi05-224" value="Samsung Blockchain" style="rounded=1;whiteSpace=wrap;html=1;fontFamily=Verdana;fontSize=17;" vertex="1" parent="1">
          <mxGeometry x="880" y="970" width="250" height="30" as="geometry" />
        </mxCell>
        <mxCell id="qgP3G6Yp0AdrARfNXi05-231" style="edgeStyle=orthogonalEdgeStyle;rounded=0;orthogonalLoop=1;jettySize=auto;html=1;entryX=0;entryY=0.5;entryDx=0;entryDy=0;fontFamily=Verdana;fontSize=17;" edge="1" parent="1" source="qgP3G6Yp0AdrARfNXi05-227" target="qgP3G6Yp0AdrARfNXi05-229">
          <mxGeometry relative="1" as="geometry" />
        </mxCell>
        <mxCell id="qgP3G6Yp0AdrARfNXi05-232" style="edgeStyle=orthogonalEdgeStyle;rounded=0;orthogonalLoop=1;jettySize=auto;html=1;entryX=0;entryY=0.5;entryDx=0;entryDy=0;fontFamily=Verdana;fontSize=17;" edge="1" parent="1" source="qgP3G6Yp0AdrARfNXi05-227" target="qgP3G6Yp0AdrARfNXi05-228">
          <mxGeometry relative="1" as="geometry" />
        </mxCell>
        <mxCell id="qgP3G6Yp0AdrARfNXi05-227" value="widget" style="rounded=1;whiteSpace=wrap;html=1;fontFamily=Verdana;fontSize=22;" vertex="1" parent="1">
          <mxGeometry x="70" y="890" width="130" height="80" as="geometry" />
        </mxCell>
        <mxCell id="qgP3G6Yp0AdrARfNXi05-228" value="IOS" style="rounded=1;whiteSpace=wrap;html=1;fontFamily=Verdana;fontSize=22;" vertex="1" parent="1">
          <mxGeometry x="300" y="950" width="120" height="30" as="geometry" />
        </mxCell>
        <mxCell id="qgP3G6Yp0AdrARfNXi05-229" value="Android" style="rounded=1;whiteSpace=wrap;html=1;fontFamily=Verdana;fontSize=22;" vertex="1" parent="1">
          <mxGeometry x="300" y="880" width="120" height="30" as="geometry" />
        </mxCell>
      </root>
    </mxGraphModel>
  </diagram>
</mxfile>
